<?xml version="1.0" encoding="UTF-8" standalone="no"?>
<!DOCTYPE svg PUBLIC "-//W3C//DTD SVG 1.1//EN"
 "http://www.w3.org/Graphics/SVG/1.1/DTD/svg11.dtd">
<!-- Generated by graphviz version 2.40.1 (20161225.0304)
 -->
<!-- Title: dependencies Pages: 1 -->
<svg width="582pt" height="211pt"
 viewBox="0.00 0.00 582.00 211.00" xmlns="http://www.w3.org/2000/svg" xmlns:xlink="http://www.w3.org/1999/xlink">
<g id="graph0" class="graph" transform="scale(1 1) rotate(0) translate(4 207)">
<title>dependencies</title>
<polygon fill="#ffffff" stroke="transparent" points="-4,4 -4,-207 578,-207 578,4 -4,4"/>
<text text-anchor="start" x="266.0091" y="-42.4" font-family="sans-serif" font-weight="bold" font-size="14.00" fill="#000000">Legend</text>
<polygon fill="#ffffb3" stroke="transparent" points="53,-10 53,-30 73,-30 73,-10 53,-10"/>
<text text-anchor="start" x="76.629" y="-15.4" font-family="sans-serif" font-size="14.00" fill="#000000"> &#160;Declarations</text>
<polygon fill="#8dd3c7" stroke="transparent" points="166,-10 166,-30 186,-30 186,-10 166,-10"/>
<text text-anchor="start" x="189.7251" y="-15.4" font-family="sans-serif" font-size="14.00" fill="#000000"> &#160;Module</text>
<polygon fill="#80b1d3" stroke="transparent" points="252,-10 252,-30 272,-30 272,-10 252,-10"/>
<text text-anchor="start" x="275.7812" y="-15.4" font-family="sans-serif" font-size="14.00" fill="#000000"> &#160;Bootstrap</text>
<polygon fill="#fdb462" stroke="transparent" points="349,-10 349,-30 369,-30 369,-10 349,-10"/>
<text text-anchor="start" x="372.6732" y="-15.4" font-family="sans-serif" font-size="14.00" fill="#000000"> &#160;Providers</text>
<polygon fill="#fb8072" stroke="transparent" points="445,-10 445,-30 465,-30 465,-10 445,-10"/>
<text text-anchor="start" x="468.7258" y="-15.4" font-family="sans-serif" font-size="14.00" fill="#000000"> &#160;Exports</text>
<g id="clust1" class="cluster">
<title>cluster_SharedModule</title>
<polygon fill="none" stroke="#000000" stroke-dasharray="1,5" points="8,-70 8,-195 566,-195 566,-70 8,-70"/>
</g>
<g id="clust2" class="cluster">
<title>cluster_SharedModule_declarations</title>
<polygon fill="none" stroke="#000000" points="16,-78 16,-130 558,-130 558,-78 16,-78"/>
</g>
<!-- AdminComponent -->
<g id="node1" class="node">
<title>AdminComponent</title>
<polygon fill="#ffffb3" stroke="#000000" points="550.2204,-122 429.7796,-122 429.7796,-86 550.2204,-86 550.2204,-122"/>
<text text-anchor="middle" x="490" y="-99.8" font-family="Times,serif" font-size="14.00" fill="#000000">AdminComponent</text>
</g>
<!-- SharedModule -->
<g id="node5" class="node">
<title>SharedModule</title>
<polygon fill="#8dd3c7" stroke="#000000" points="330.4231,-187 327.4231,-191 306.4231,-191 303.4231,-187 231.5769,-187 231.5769,-151 330.4231,-151 330.4231,-187"/>
<text text-anchor="middle" x="281" y="-164.8" font-family="Times,serif" font-size="14.00" fill="#000000">SharedModule</text>
</g>
<!-- AdminComponent&#45;&gt;SharedModule -->
<g id="edge1" class="edge">
<title>AdminComponent&#45;&gt;SharedModule</title>
<path fill="none" stroke="#000000" d="M490,-122.1061C490,-141.3391 490,-169 490,-169 490,-169 340.2654,-169 340.2654,-169"/>
<polygon fill="#000000" stroke="#000000" points="340.2655,-165.5001 330.2654,-169 340.2654,-172.5001 340.2655,-165.5001"/>
</g>
<!-- ContactComponent -->
<g id="node2" class="node">
<title>ContactComponent</title>
<polygon fill="#ffffb3" stroke="#000000" points="411.3795,-122 286.6205,-122 286.6205,-86 411.3795,-86 411.3795,-122"/>
<text text-anchor="middle" x="349" y="-99.8" font-family="Times,serif" font-size="14.00" fill="#000000">ContactComponent</text>
</g>
<!-- ContactComponent&#45;&gt;SharedModule -->
<g id="edge2" class="edge">
<title>ContactComponent&#45;&gt;SharedModule</title>
<path fill="none" stroke="#000000" d="M308.3857,-122.1061C308.3857,-122.1061 308.3857,-140.991 308.3857,-140.991"/>
<polygon fill="#000000" stroke="#000000" points="304.8858,-140.9909 308.3857,-150.991 311.8858,-140.991 304.8858,-140.9909"/>
</g>
<!-- ErrorComponent -->
<g id="node3" class="node">
<title>ErrorComponent</title>
<polygon fill="#ffffb3" stroke="#000000" points="268.3669,-122 157.6331,-122 157.6331,-86 268.3669,-86 268.3669,-122"/>
<text text-anchor="middle" x="213" y="-99.8" font-family="Times,serif" font-size="14.00" fill="#000000">ErrorComponent</text>
</g>
<!-- ErrorComponent&#45;&gt;SharedModule -->
<g id="edge3" class="edge">
<title>ErrorComponent&#45;&gt;SharedModule</title>
<path fill="none" stroke="#000000" d="M250.1112,-122.1061C250.1112,-122.1061 250.1112,-140.991 250.1112,-140.991"/>
<polygon fill="#000000" stroke="#000000" points="246.6112,-140.9909 250.1112,-150.991 253.6112,-140.991 246.6112,-140.9909"/>
</g>
<!-- HomeComponent -->
<g id="node4" class="node">
<title>HomeComponent</title>
<polygon fill="#ffffb3" stroke="#000000" points="139.5451,-122 24.4549,-122 24.4549,-86 139.5451,-86 139.5451,-122"/>
<text text-anchor="middle" x="82" y="-99.8" font-family="Times,serif" font-size="14.00" fill="#000000">HomeComponent</text>
</g>
<!-- HomeComponent&#45;&gt;SharedModule -->
<g id="edge4" class="edge">
<title>HomeComponent&#45;&gt;SharedModule</title>
<path fill="none" stroke="#000000" d="M82,-122.1061C82,-141.3391 82,-169 82,-169 82,-169 221.5533,-169 221.5533,-169"/>
<polygon fill="#000000" stroke="#000000" points="221.5533,-172.5001 231.5533,-169 221.5533,-165.5001 221.5533,-172.5001"/>
</g>
</g>
</svg>
